<svg xmlns="http://www.w3.org/2000/svg" xmlns:xlink="http://www.w3.org/1999/xlink" id="emTaPzswGKO1" shape-rendering="geometricPrecision" text-rendering="geometricPrecision" project-id="ee5a89caf96d4552a87c627fb0ac0fff" export-id="5e9e6ab069204e9ea866e12d6c3a6160" cached="false" viewBox="-4.97 -10.84 2919.88 1036.25"><defs><radialGradient id="emTaPzswGKO32-fill" cx="0" cy="0" r="0.698961" spreadMethod="pad" gradientUnits="objectBoundingBox" gradientTransform="translate(0.5 0.741054)"><stop id="emTaPzswGKO32-fill-0" offset="0%" stop-color="#c3c3c3"/><stop id="emTaPzswGKO32-fill-1" offset="100%" stop-color="#000"/></radialGradient><radialGradient id="emTaPzswGKO33-fill" cx="0" cy="0" r="1.160627" spreadMethod="pad" gradientUnits="objectBoundingBox" gradientTransform="translate(0.5 0.5)"><stop id="emTaPzswGKO33-fill-0" offset="0%" stop-color="#f34632"/><stop id="emTaPzswGKO33-fill-1" offset="100%" stop-color="#9f0303"/></radialGradient></defs><path d="M-1.126292,955c233.126294,106.500684,0,106.500684,1374.126292,106.500685s1271,.000001,1538.813588-104.280786C2037.931624,956.553929,872.755672,955.66597,-1.126292,955Z" transform="translate(0-39)" fill="#666566" stroke="rgba(63,87,135,0)" stroke-width="5.824"/><path d="M0,678.157398L0,958l2912,4.128906v-283.971508h-2912Z" transform="translate(0-39)" fill="#c41f0c" stroke="rgba(63,87,135,0)" stroke-width="5.824"/><path d="M1631,678.093777l20-31.215451l99.6875-3.686408-26.039062,34.901857L1631,678.093777Z" transform="translate(0-38.999996)" fill="#cfcece" stroke="rgba(63,87,135,0)" stroke-width="5.824"/><path d="M1651,646.878326l-19.623535,31.279072L0,678.157398L-1.126292,648.375L1651,646.878326Z" transform="translate(0-39)" fill="#710a00" stroke="rgba(63,87,135,0)" stroke-width="5.824"/><path d="M1747.86465,644.794934L1723.375,677.057301L2084,677.0573l25.494386-32.262366h-361.629736Z" transform="translate(0-38.999996)" fill="#b1b1b1" stroke="rgba(63,87,135,0)" stroke-width="5.824"/><path d="M1365.931758,488.311217q0,0-840.931758,3.688752L522,1l1174.625-5.000031q-330.693242,492.311248-330.693242,492.311248Z" transform="translate(-8.8125-2.999969)" fill="#c41f0c"/><path d="M2200.0625,39.000027l-448.375,607.38509L1656.399475,648L2094.790102,36.882769L2200.0625,39.000027Z" transform="translate(-6-39)" fill="#e5e4e4" stroke="rgba(63,87,135,0)" stroke-width="5.824"/><path d="M2329.995183,34.719894L1912.476924,643.191919L1759,644.623072L2204.014642,34.719894h125.980541Z" transform="translate(-10.999998-39)" fill="#d1d1d1" stroke="rgba(63,87,135,0)" stroke-width="5.824"/><path d="M2392.731222,36.882769l-422.481224,606.30915L1759,644.623072L2175.617648,34.719894l217.113574,2.162875Z" transform="matrix(1.01513 0 0 1 109.066753-39)" fill="#fff" stroke="rgba(63,87,135,0)" stroke-width="5.824"/><path d="M2200.0625,39.000027l.186412,638.598756-829.365234-1.736048L1825.248912,37.75043L2200.0625,39.000027Z" transform="translate(711.751088-38.441385)" fill="#e5e4e4" stroke="rgba(63,87,135,0)" stroke-width="5.824"/><path d="M-1.126292,955c233.126294,106.500684,0,106.500684,1374.126292,106.500685s1271,.000001,1538.813588-104.280786C2037.931624,956.553929,872.755672,955.66597,-1.126292,955Z" transform="translate(0-39)" fill="#666566" stroke="rgba(63,87,135,0)" stroke-width="5.824"/><path d="M0,678.157398L0,958l2912,4.128906v-283.971508h-2912Z" transform="translate(0-39)" fill="#c41f0c" stroke="rgba(63,87,135,0)" stroke-width="5.824"/><path d="M1631,678.093777l20-31.215451l99.6875-3.686408-26.039062,34.901857L1631,678.093777Z" transform="translate(0-38.999996)" fill="#cfcece" stroke="rgba(63,87,135,0)" stroke-width="5.824"/><path d="M1651,646.878326l-19.623535,31.279072L0,678.157398L-1.126292,648.375L1651,646.878326Z" transform="translate(0-39)" fill="#710a00" stroke="rgba(63,87,135,0)" stroke-width="5.824"/><path d="M1747.86465,644.794934L1723.375,677.057301L2084,677.0573l25.494386-32.262366h-361.629736Z" transform="translate(0-38.999996)" fill="#b1b1b1" stroke="rgba(63,87,135,0)" stroke-width="5.824"/><path d="M1365.931758,488.311217q0,0-840.931758,3.688752L522,1l1174.625-5.000031q-330.693242,492.311248-330.693242,492.311248Z" transform="translate(-8.8125-2.999969)" fill="#c41f0c"/><path d="M2200.0625,39.000027l-448.375,607.38509L1656.399475,648L2094.790102,36.882769L2200.0625,39.000027Z" transform="translate(-6-39)" fill="#e5e4e4" stroke="rgba(63,87,135,0)" stroke-width="5.824"/><path d="M2329.995183,34.719894L1912.476924,643.191919L1759,644.623072L2204.014642,34.719894h125.980541Z" transform="translate(-10.999998-39)" fill="#d1d1d1" stroke="rgba(63,87,135,0)" stroke-width="5.824"/><path d="M2392.731222,36.882769l-422.481224,606.30915L1759,644.623072L2175.617648,34.719894l217.113574,2.162875Z" transform="matrix(1.01513 0 0 1 109.066753-39)" fill="#fff" stroke="rgba(63,87,135,0)" stroke-width="5.824"/><path d="M2200.0625,39.000027l.186412,638.598756-829.365234-1.736048L1825.248912,37.75043L2200.0625,39.000027Z" transform="translate(711.751088-38.441385)" fill="#e5e4e4" stroke="rgba(63,87,135,0)" stroke-width="5.824"/><path d="M-1.126292,955c233.126294,106.500684,0,106.500684,1374.126292,106.500685s1271,.000001,1538.813588-104.280786C2037.931624,956.553929,872.755672,955.66597,-1.126292,955Z" transform="translate(0-39)" fill="#666566" stroke="rgba(63,87,135,0)" stroke-width="5.824"/><path d="M0,678.157398L0,958l2912,4.128906v-283.971508h-2912Z" transform="translate(0-39)" fill="#c41f0c" stroke="rgba(63,87,135,0)" stroke-width="5.824"/><path d="M1631,678.093777l20-31.215451l99.6875-3.686408-26.039062,34.901857L1631,678.093777Z" transform="translate(0-38.999996)" fill="#cfcece" stroke="rgba(63,87,135,0)" stroke-width="5.824"/><path d="M1651,646.878326l-19.623535,31.279072L0,678.157398L-1.126292,648.375L1651,646.878326Z" transform="translate(0-39)" fill="#710a00" stroke="rgba(63,87,135,0)" stroke-width="5.824"/><path d="M1747.86465,644.794934L1723.375,677.057301L2084,677.0573l25.494386-32.262366h-361.629736Z" transform="translate(0-38.999996)" fill="#b1b1b1" stroke="rgba(63,87,135,0)" stroke-width="5.824"/><path d="M1365.931758,488.311217q0,0-840.931758,3.688752L522,1l1174.625-5.000031q-330.693242,492.311248-330.693242,492.311248Z" transform="translate(-8.8125-2.999969)" fill="#c41f0c"/><path d="M2200.0625,39.000027l-448.375,607.38509L1656.399475,648L2094.790102,36.882769L2200.0625,39.000027Z" transform="translate(-6-39)" fill="#e5e4e4" stroke="rgba(63,87,135,0)" stroke-width="5.824"/><path d="M2329.995183,34.719894L1912.476924,643.191919L1759,644.623072L2204.014642,34.719894h125.980541Z" transform="translate(-10.999998-39)" fill="#d1d1d1" stroke="rgba(63,87,135,0)" stroke-width="5.824"/><path d="M2392.731222,36.882769l-422.481224,606.30915L1759,644.623072L2175.617648,34.719894l217.113574,2.162875Z" transform="matrix(1.01513 0 0 1 109.066753-39)" fill="#fff" stroke="rgba(63,87,135,0)" stroke-width="5.824"/><path d="M2200.0625,39.000027l.186412,638.598756-829.365234-1.736048L1825.248912,37.75043L2200.0625,39.000027Z" transform="translate(711.751088-38.441385)" fill="#e5e4e4" stroke="rgba(63,87,135,0)" stroke-width="5.824"/><path d="M-1.126292,955c233.126294,106.500684,0,106.500684,1374.126292,106.500685s1271,.000001,1538.813588-104.280786C2037.931624,956.553929,872.755672,955.66597,-1.126292,955Z" transform="translate(0-39)" fill="url(#emTaPzswGKO32-fill)" stroke="rgba(63,87,135,0)" stroke-width="5.824"/><path d="M0,678.157398L0,958l2912,4.128906v-283.971508h-2912Z" transform="translate(0-39)" fill="url(#emTaPzswGKO33-fill)" stroke="rgba(63,87,135,0)" stroke-width="5.824"/><path d="M1631,678.093777l20-31.215451l99.6875-3.686408-26.039062,34.901857L1631,678.093777Z" transform="translate(0-38.999996)" fill="#cfcece" stroke="rgba(63,87,135,0)" stroke-width="5.824"/><path d="M1651,646.878326l-19.623535,31.279072L0,678.157398L-1.126292,648.375L1651,646.878326Z" transform="translate(0-39)" fill="#710a00" stroke="rgba(63,87,135,0)" stroke-width="5.824"/><path d="M1747.86465,644.794934L1723.375,677.057301L2084,677.0573l25.494386-32.262366h-361.629736Z" transform="translate(0-38.999996)" fill="#b1b1b1" stroke="rgba(63,87,135,0)" stroke-width="5.824"/><path d="M1365.931758,488.311217q0,0-840.931758,3.688752L522,1l1174.625-5.000031q-330.693242,492.311248-330.693242,492.311248Z" transform="translate(-8.8125-2.999969)" fill="#c41f0c"/><path d="M2200.0625,39.000027l-448.375,607.38509L1656.399475,648L2094.790102,36.882769L2200.0625,39.000027Z" transform="translate(-6-39)" fill="#e5e4e4" stroke="rgba(63,87,135,0)" stroke-width="5.824"/><path d="M2329.995183,34.719894L1912.476924,643.191919L1759,644.623072L2204.014642,34.719894h125.980541Z" transform="translate(-10.999998-39)" fill="#d1d1d1" stroke="rgba(63,87,135,0)" stroke-width="5.824"/><path d="M2392.731222,36.882769l-422.481224,606.30915L1759,644.623072L2175.617648,34.719894l217.113574,2.162875Z" transform="matrix(1.01513 0 0 1 109.066753-39)" fill="#fff" stroke="rgba(63,87,135,0)" stroke-width="5.824"/><path d="M2200.0625,39.000027l.186412,638.598756-829.365234-1.736048L1825.248912,37.75043L2200.0625,39.000027Z" transform="translate(711.751088-38.441385)" fill="#e5e4e4" stroke="rgba(63,87,135,0)" stroke-width="5.824"/><path d="M2088.790102,36.882769L1650.399475,648.375L0,648.375L-1.126292,39.558642L516.1875,37.000031v487.311217h840.931758L1687.8125,32l400.977602,4.882769Z" transform="translate(0-39)" fill="#9f0101" stroke="rgba(63,87,135,0)" stroke-width="7.68"/></svg>