<svg xmlns="http://www.w3.org/2000/svg" shape-rendering="geometricPrecision" text-rendering="geometricPrecision" viewBox="-4.97 -10.84 2919.88 1036.25"><defs><radialGradient id="a" cx="0" cy="0" r=".699" spreadMethod="pad" gradientUnits="objectBoundingBox" gradientTransform="translate(.5 .741)"><stop offset="0%" stop-color="#c3c3c3"/><stop offset="100%"/></radialGradient><radialGradient id="b" cx="0" cy="0" r="1.161" spreadMethod="pad" gradientUnits="objectBoundingBox" gradientTransform="translate(.5 .5)"><stop offset="0%" stop-color="#f34632"/><stop offset="100%" stop-color="#9f0303"/></radialGradient></defs><path d="M-1.126 916C232 1022.5-1.126 1022.5 1373 1022.5s1271 0 1538.814-104.28L-1.126 916z" fill="#666566" stroke="rgba(63,87,135,0)" stroke-width="5.824"/><path d="M0 639.157V919l2912 4.129V639.157H0z" fill="#c41f0c" stroke="rgba(63,87,135,0)" stroke-width="5.824"/><path d="m1631 639.094 20-31.216 99.688-3.686-26.04 34.902H1631z" fill="#cfcece" stroke="rgba(63,87,135,0)" stroke-width="5.824"/><path d="m1651 607.878-19.624 31.28H0l-1.126-29.783L1651 607.878z" fill="#710a00" stroke="rgba(63,87,135,0)" stroke-width="5.824"/><path d="m1747.865 605.795-24.49 32.262H2084l25.494-32.262h-361.63z" fill="#b1b1b1" stroke="rgba(63,87,135,0)" stroke-width="5.824"/><path d="M1357.12 485.311 516.187 489l-3-491 1174.624-5-330.693 492.311z" fill="#c41f0c"/><path d="m2194.063 0-448.376 607.385L1650.4 609 2088.79-2.117 2194.063 0z" fill="#e5e4e4" stroke="rgba(63,87,135,0)" stroke-width="5.824"/><path d="m2318.995-4.28-417.518 608.472L1748 605.623 2193.015-4.28h125.98z" fill="#d1d1d1" stroke="rgba(63,87,135,0)" stroke-width="5.824"/><path d="M2392.731 36.883 1970.25 643.192 1759 644.623 2175.618 34.72l217.113 2.163z" transform="matrix(1.01513 0 0 1 109.067 -39)" fill="#fff" stroke="rgba(63,87,135,0)" stroke-width="5.824"/><path d="m2911.814.559.186 638.598-829.365-1.736L2537-.69l374.814 1.25z" fill="#e5e4e4" stroke="rgba(63,87,135,0)" stroke-width="5.824"/><path d="M-1.126 916C232 1022.5-1.126 1022.5 1373 1022.5s1271 0 1538.814-104.28L-1.126 916z" fill="#666566" stroke="rgba(63,87,135,0)" stroke-width="5.824"/><path d="M0 639.157V919l2912 4.129V639.157H0z" fill="#c41f0c" stroke="rgba(63,87,135,0)" stroke-width="5.824"/><path d="m1631 639.094 20-31.216 99.688-3.686-26.04 34.902H1631z" fill="#cfcece" stroke="rgba(63,87,135,0)" stroke-width="5.824"/><path d="m1651 607.878-19.624 31.28H0l-1.126-29.783L1651 607.878z" fill="#710a00" stroke="rgba(63,87,135,0)" stroke-width="5.824"/><path d="m1747.865 605.795-24.49 32.262H2084l25.494-32.262h-361.63z" fill="#b1b1b1" stroke="rgba(63,87,135,0)" stroke-width="5.824"/><path d="M1357.12 485.311 516.187 489l-3-491 1174.624-5-330.693 492.311z" fill="#c41f0c"/><path d="m2194.063 0-448.376 607.385L1650.4 609 2088.79-2.117 2194.063 0z" fill="#e5e4e4" stroke="rgba(63,87,135,0)" stroke-width="5.824"/><path d="m2318.995-4.28-417.518 608.472L1748 605.623 2193.015-4.28h125.98z" fill="#d1d1d1" stroke="rgba(63,87,135,0)" stroke-width="5.824"/><path d="M2392.731 36.883 1970.25 643.192 1759 644.623 2175.618 34.72l217.113 2.163z" transform="matrix(1.01513 0 0 1 109.067 -39)" fill="#fff" stroke="rgba(63,87,135,0)" stroke-width="5.824"/><path d="m2911.814.559.186 638.598-829.365-1.736L2537-.69l374.814 1.25z" fill="#e5e4e4" stroke="rgba(63,87,135,0)" stroke-width="5.824"/><path d="M-1.126 916C232 1022.5-1.126 1022.5 1373 1022.5s1271 0 1538.814-104.28L-1.126 916z" fill="#666566" stroke="rgba(63,87,135,0)" stroke-width="5.824"/><path d="M0 639.157V919l2912 4.129V639.157H0z" fill="#c41f0c" stroke="rgba(63,87,135,0)" stroke-width="5.824"/><path d="m1631 639.094 20-31.216 99.688-3.686-26.04 34.902H1631z" fill="#cfcece" stroke="rgba(63,87,135,0)" stroke-width="5.824"/><path d="m1651 607.878-19.624 31.28H0l-1.126-29.783L1651 607.878z" fill="#710a00" stroke="rgba(63,87,135,0)" stroke-width="5.824"/><path d="m1747.865 605.795-24.49 32.262H2084l25.494-32.262h-361.63z" fill="#b1b1b1" stroke="rgba(63,87,135,0)" stroke-width="5.824"/><path d="M1357.12 485.311 516.187 489l-3-491 1174.624-5-330.693 492.311z" fill="#c41f0c"/><path d="m2194.063 0-448.376 607.385L1650.4 609 2088.79-2.117 2194.063 0z" fill="#e5e4e4" stroke="rgba(63,87,135,0)" stroke-width="5.824"/><path d="m2318.995-4.28-417.518 608.472L1748 605.623 2193.015-4.28h125.98z" fill="#d1d1d1" stroke="rgba(63,87,135,0)" stroke-width="5.824"/><path d="M2392.731 36.883 1970.25 643.192 1759 644.623 2175.618 34.72l217.113 2.163z" transform="matrix(1.01513 0 0 1 109.067 -39)" fill="#fff" stroke="rgba(63,87,135,0)" stroke-width="5.824"/><path d="m2911.814.559.186 638.598-829.365-1.736L2537-.69l374.814 1.25z" fill="#e5e4e4" stroke="rgba(63,87,135,0)" stroke-width="5.824"/><path d="M-1.126 955C232 1061.5-1.126 1061.5 1373 1061.5s1271 0 1538.814-104.28L-1.126 955z" transform="translate(0 -39)" fill="url(#a)" stroke="rgba(63,87,135,0)" stroke-width="5.824"/><path d="M0 678.157V958l2912 4.129V678.157H0z" transform="translate(0 -39)" fill="url(#b)" stroke="rgba(63,87,135,0)" stroke-width="5.824"/><path d="m1631 639.094 20-31.216 99.688-3.686-26.04 34.902H1631z" fill="#cfcece" stroke="rgba(63,87,135,0)" stroke-width="5.824"/><path d="m1651 607.878-19.624 31.28H0l-1.126-29.783L1651 607.878z" fill="#710a00" stroke="rgba(63,87,135,0)" stroke-width="5.824"/><path d="m1747.865 605.795-24.49 32.262H2084l25.494-32.262h-361.63z" fill="#b1b1b1" stroke="rgba(63,87,135,0)" stroke-width="5.824"/><path d="M1357.12 485.311 516.187 489l-3-491 1174.624-5-330.693 492.311z" fill="#c41f0c"/><path d="m2194.063 0-448.376 607.385L1650.4 609 2088.79-2.117 2194.063 0z" fill="#e5e4e4" stroke="rgba(63,87,135,0)" stroke-width="5.824"/><path d="m2318.995-4.28-417.518 608.472L1748 605.623 2193.015-4.28h125.98z" fill="#d1d1d1" stroke="rgba(63,87,135,0)" stroke-width="5.824"/><path d="M2392.731 36.883 1970.25 643.192 1759 644.623 2175.618 34.72l217.113 2.163z" transform="matrix(1.01513 0 0 1 109.067 -39)" fill="#fff" stroke="rgba(63,87,135,0)" stroke-width="5.824"/><path d="m2911.814.559.186 638.598-829.365-1.736L2537-.69l374.814 1.25z" fill="#e5e4e4" stroke="rgba(63,87,135,0)" stroke-width="5.824"/><path d="M2088.79-2.117 1650.4 609.375H0L-1.126.559 516.188-2v487.311h840.931L1687.813-7l400.977 4.883z" fill="#9f0101" stroke="rgba(63,87,135,0)" stroke-width="7.68"/></svg>